<mxfile host="Electron" modified="2024-11-04T08:07:05.231Z" agent="Mozilla/5.0 (Windows NT 10.0; Win64; x64) AppleWebKit/537.36 (KHTML, like Gecko) draw.io/24.5.3 Chrome/124.0.6367.207 Electron/30.0.6 Safari/537.36" etag="ZzjMKL89ggDzye8PdK2h" version="24.5.3" type="device">
  <diagram name="Seite-1" id="tQ0ftKxHk6KphrgHs4fO">
    <mxGraphModel dx="988" dy="592" grid="1" gridSize="10" guides="1" tooltips="1" connect="1" arrows="1" fold="1" page="1" pageScale="1" pageWidth="827" pageHeight="1169" math="0" shadow="0">
      <root>
        <mxCell id="0" />
        <mxCell id="1" parent="0" />
        <mxCell id="zMBJgj44hsTAgykrljGL-1" value="" style="rhombus;whiteSpace=wrap;html=1;fillColor=#fff2cc;strokeColor=#d6b656;" vertex="1" parent="1">
          <mxGeometry x="337.63" y="509" width="152" height="152" as="geometry" />
        </mxCell>
        <mxCell id="mLHIJTyr5hpvtW-Wlfsm-3" value="Kundenbedarf" style="text;html=1;align=center;verticalAlign=middle;whiteSpace=wrap;rounded=0;" parent="1" vertex="1">
          <mxGeometry x="349" y="479" width="130" height="30" as="geometry" />
        </mxCell>
        <mxCell id="mLHIJTyr5hpvtW-Wlfsm-9" value="Machbarkeit" style="text;html=1;align=center;verticalAlign=middle;whiteSpace=wrap;rounded=0;" parent="1" vertex="1">
          <mxGeometry x="250" y="570" width="87.63" height="30" as="geometry" />
        </mxCell>
        <mxCell id="mLHIJTyr5hpvtW-Wlfsm-5" value="" style="endArrow=none;dashed=1;html=1;rounded=0;exitX=0;exitY=0.5;exitDx=0;exitDy=0;dashPattern=1 4;entryX=0;entryY=0.5;entryDx=0;entryDy=0;" parent="1" source="zMBJgj44hsTAgykrljGL-1" edge="1" target="mLHIJTyr5hpvtW-Wlfsm-10">
          <mxGeometry width="50" height="50" relative="1" as="geometry">
            <mxPoint x="279.9950000000001" y="635.6249999999999" as="sourcePoint" />
            <mxPoint x="367" y="585" as="targetPoint" />
          </mxGeometry>
        </mxCell>
        <mxCell id="mLHIJTyr5hpvtW-Wlfsm-6" value="" style="endArrow=none;dashed=1;html=1;rounded=0;dashPattern=1 4;entryX=0.5;entryY=1;entryDx=0;entryDy=0;exitX=0.5;exitY=0;exitDx=0;exitDy=0;" parent="1" source="mLHIJTyr5hpvtW-Wlfsm-10" edge="1" target="mLHIJTyr5hpvtW-Wlfsm-3">
          <mxGeometry width="50" height="50" relative="1" as="geometry">
            <mxPoint x="498.5855" y="558.3169999999999" as="sourcePoint" />
            <mxPoint x="414" y="509" as="targetPoint" />
          </mxGeometry>
        </mxCell>
        <mxCell id="mLHIJTyr5hpvtW-Wlfsm-10" value="Produkt-entwicklung" style="text;html=1;align=center;verticalAlign=middle;whiteSpace=wrap;rounded=0;fillColor=#fff2cc;strokeColor=none;" parent="1" vertex="1">
          <mxGeometry x="384" y="562" width="60" height="45" as="geometry" />
        </mxCell>
        <mxCell id="oB--57uGbdaJ3v9jcPXn-1" value="Wettbewerb" style="text;html=1;align=center;verticalAlign=middle;whiteSpace=wrap;rounded=0;" parent="1" vertex="1">
          <mxGeometry x="384" y="661" width="60" height="30" as="geometry" />
        </mxCell>
        <mxCell id="zMBJgj44hsTAgykrljGL-2" value="ProfitabilitÃ¤t" style="text;html=1;align=center;verticalAlign=middle;whiteSpace=wrap;rounded=0;" vertex="1" parent="1">
          <mxGeometry x="489.63" y="570" width="90.37" height="30" as="geometry" />
        </mxCell>
        <mxCell id="zMBJgj44hsTAgykrljGL-3" value="" style="endArrow=none;dashed=1;html=1;rounded=0;dashPattern=1 4;exitX=0.5;exitY=1;exitDx=0;exitDy=0;entryX=0.5;entryY=1;entryDx=0;entryDy=0;" edge="1" parent="1" source="zMBJgj44hsTAgykrljGL-1" target="mLHIJTyr5hpvtW-Wlfsm-10">
          <mxGeometry width="50" height="50" relative="1" as="geometry">
            <mxPoint x="424" y="570" as="sourcePoint" />
            <mxPoint x="424" y="519" as="targetPoint" />
          </mxGeometry>
        </mxCell>
        <mxCell id="zMBJgj44hsTAgykrljGL-4" value="" style="endArrow=none;dashed=1;html=1;rounded=0;dashPattern=1 4;entryX=1;entryY=0.5;entryDx=0;entryDy=0;" edge="1" parent="1" source="mLHIJTyr5hpvtW-Wlfsm-10" target="zMBJgj44hsTAgykrljGL-1">
          <mxGeometry width="50" height="50" relative="1" as="geometry">
            <mxPoint x="348" y="595" as="sourcePoint" />
            <mxPoint x="394" y="593" as="targetPoint" />
          </mxGeometry>
        </mxCell>
      </root>
    </mxGraphModel>
  </diagram>
</mxfile>
